# xmcd
# 
# Track frame offsets:
#     182
#     12857
#     25122
#     45410
#     60167
#     75027
#     90817
#     106030
#     121935
#     137132
#     154685
#     175942
#     201320
#     220990
#     237762
#     263707
# 
# Disc length: 3796
# 
# Revision: 3
# Processed by: cddbd v1.5.2PL0 Copyright (c) Steve Scherf et al.
# Submitted via: fre:ac v1.0.31
# 
DISCID=b40ed210
DTITLE=Paul Simon - Negotiations And Love Songs 1971 - 1986
DYEAR=1988
DGENRE=Pop
TTITLE0=Mother And Child Reunion
TTITLE1=Me And Julio Down By The Schoolyard
TTITLE2=Something So Right
TTITLE3=St. Judy´s Comet
TTITLE4=Loves Me Like A Rock
TTITLE5=Kodachrome
TTITLE6=Have A Good Time
TTITLE7=50 Ways To Leave Your Lover
TTITLE8=Still Crazy After All These Years
TTITLE9=Late In The Evening
TTITLE10=Slip Slidin´ Away
TTITLE11=Hearts And Bones
TTITLE12=Train In The Distance
TTITLE13=Rene And Georgette Magritte With Their Dog After The War
TTITLE14=Diamonds On The Soles Of Her Shoes
TTITLE15=You Can Call Me Al
EXTD=
EXTT0=
EXTT1=
EXTT2=
EXTT3=
EXTT4=
EXTT5=
EXTT6=
EXTT7=
EXTT8=
EXTT9=
EXTT10=
EXTT11=
EXTT12=
EXTT13=
EXTT14=
EXTT15=
PLAYORDER=
